<svg width="379" height="340" viewBox="0 0 379 340" fill="none" xmlns="http://www.w3.org/2000/svg">
<g clip-path="url(#clip0_126_157)">
<path d="M375.433 130.023C375.297 130.023 375.165 129.981 375.054 129.904L191.285 1.92176C190.726 1.5341 190.061 1.32693 189.381 1.32809C188.7 1.32925 188.036 1.53868 187.478 1.92825L5.03307 129.903C4.88876 130.004 4.71017 130.044 4.53655 130.013C4.36294 129.983 4.20854 129.884 4.10732 129.74C4.0061 129.596 3.96635 129.417 3.99682 129.244C4.02729 129.07 4.12548 128.916 4.26979 128.814L186.715 0.840027C187.496 0.294717 188.426 0.00158718 189.378 2.15631e-05C190.331 -0.00154405 191.261 0.288527 192.044 0.831266L375.813 128.813C375.929 128.894 376.017 129.01 376.062 129.144C376.108 129.278 376.11 129.423 376.067 129.558C376.025 129.693 375.941 129.81 375.826 129.894C375.712 129.978 375.575 130.023 375.433 130.023L375.433 130.023Z" fill="#3F3D56"/>
<path d="M15.4585 134.559L189.561 5.52785L364.985 143.741L198.532 242.417L108.162 221.818L15.4585 134.559Z" fill="#E6E6E6"/>
<path d="M115.79 303.364H29.7789C29.2508 303.365 28.7277 303.262 28.2396 303.06C27.7514 302.858 27.3078 302.562 26.9342 302.189C26.5605 301.816 26.264 301.373 26.0618 300.885C25.8595 300.397 25.7554 299.874 25.7554 299.346C25.7554 298.818 25.8595 298.295 26.0618 297.807C26.264 297.319 26.5605 296.876 26.9342 296.503C27.3078 296.129 27.7514 295.833 28.2396 295.632C28.7277 295.43 29.2508 295.327 29.7789 295.327H115.79C116.318 295.327 116.841 295.43 117.329 295.632C117.817 295.833 118.261 296.129 118.635 296.503C119.008 296.876 119.305 297.319 119.507 297.807C119.709 298.295 119.813 298.818 119.813 299.346C119.813 299.874 119.709 300.397 119.507 300.885C119.305 301.373 119.008 301.816 118.635 302.189C118.261 302.562 117.817 302.858 117.329 303.06C116.841 303.262 116.318 303.365 115.79 303.364V303.364Z" fill="#E0342E"/>
<path d="M60.6378 286.088H29.7789C29.2508 286.088 28.7277 285.985 28.2396 285.783C27.7514 285.582 27.3078 285.286 26.9342 284.913C26.5605 284.539 26.264 284.096 26.0618 283.608C25.8595 283.12 25.7554 282.597 25.7554 282.069C25.7554 281.541 25.8595 281.018 26.0618 280.53C26.264 280.042 26.5605 279.599 26.9342 279.226C27.3078 278.853 27.7514 278.557 28.2396 278.355C28.7277 278.154 29.2508 278.05 29.7789 278.051H60.6378C61.1659 278.05 61.689 278.154 62.1771 278.355C62.6652 278.557 63.1088 278.853 63.4825 279.226C63.8562 279.599 64.1527 280.042 64.3549 280.53C64.5572 281.018 64.6613 281.541 64.6613 282.069C64.6613 282.597 64.5572 283.12 64.3549 283.608C64.1527 284.096 63.8562 284.539 63.4825 284.913C63.1088 285.286 62.6652 285.582 62.1771 285.783C61.689 285.985 61.1659 286.088 60.6378 286.088Z" fill="#E0342E"/>
<path d="M192.009 206.428C191.355 206.429 190.708 206.302 190.103 206.055L82.7283 161.502V22.044C82.7297 20.8109 83.2202 19.6286 84.0922 18.7566C84.9642 17.8846 86.1465 17.3941 87.3797 17.3927H293.37C294.603 17.3941 295.785 17.8846 296.657 18.7566C297.529 19.6286 298.02 20.8109 298.021 22.044V161.599L297.819 161.686L193.973 206.033C193.352 206.294 192.684 206.429 192.009 206.428Z" fill="white"/>
<path d="M192.009 206.76C191.312 206.761 190.622 206.626 189.976 206.363L82.3962 161.724V22.044C82.3977 20.7227 82.9233 19.456 83.8576 18.5217C84.7919 17.5874 86.0586 17.0619 87.3799 17.0604H293.37C294.691 17.0619 295.958 17.5874 296.892 18.5217C297.826 19.456 298.352 20.7227 298.353 22.044V161.819L194.104 206.339C193.441 206.618 192.729 206.761 192.009 206.76V206.76ZM83.7252 160.836L190.483 205.134C191.479 205.538 192.594 205.531 193.585 205.115L297.025 160.941V22.044C297.023 21.0751 296.638 20.1462 295.953 19.461C295.268 18.7759 294.339 18.3905 293.37 18.3893H87.3799C86.411 18.3905 85.4821 18.7759 84.7969 19.461C84.1118 20.1462 83.7264 21.0751 83.7252 22.044L83.7252 160.836Z" fill="#3F3D56"/>
<path d="M374.104 128.694H373.971L297.689 161.267L193.318 205.834C192.911 206.005 192.473 206.095 192.031 206.097C191.588 206.1 191.15 206.015 190.74 205.847L83.0605 161.174L4.90381 128.747L4.78441 128.694H4.65139C3.41818 128.695 2.23587 129.186 1.36387 130.058C0.491859 130.93 0.00136834 132.112 0 133.345V335.349C0.00137009 336.582 0.491859 337.764 1.36387 338.636C2.23587 339.508 3.41818 339.999 4.65139 340H374.104C375.338 339.999 376.52 339.508 377.392 338.636C378.264 337.764 378.754 336.582 378.756 335.349V133.345C378.754 132.112 378.264 130.93 377.392 130.058C376.52 129.186 375.338 128.695 374.104 128.694V128.694ZM377.427 335.349C377.426 336.23 377.076 337.075 376.453 337.698C375.83 338.321 374.985 338.671 374.104 338.671H4.65139C3.77033 338.671 2.92547 338.321 2.30247 337.698C1.67948 337.075 1.32932 336.23 1.32897 335.349V133.345C1.33017 132.486 1.66344 131.661 2.2591 131.042C2.85476 130.422 3.66669 130.057 4.52517 130.023L83.0605 162.609L190.229 207.077C191.389 207.549 192.689 207.541 193.843 207.057L297.689 162.709L374.237 130.023C375.094 130.06 375.904 130.426 376.498 131.045C377.092 131.664 377.425 132.488 377.427 133.345V335.349Z" fill="#3F3D56"/>
<path d="M190.936 166.883C186.972 166.891 183.113 165.609 179.942 163.231L179.745 163.084L138.34 131.383C136.423 129.913 134.813 128.081 133.604 125.99C132.395 123.899 131.609 121.59 131.292 119.195C130.975 116.8 131.133 114.366 131.757 112.032C132.38 109.699 133.457 107.51 134.926 105.593C136.396 103.675 138.228 102.066 140.319 100.857C142.411 99.6474 144.719 98.8618 147.114 98.5448C149.509 98.2278 151.943 98.3855 154.277 99.0091C156.61 99.6327 158.799 100.71 160.716 102.179L187.535 122.743L250.912 40.0903C252.382 38.1733 254.215 36.5645 256.307 35.3559C258.398 34.1473 260.708 33.3626 263.102 33.0464C265.497 32.7303 267.931 32.889 270.265 33.5134C272.598 34.1379 274.786 35.2159 276.703 36.6858L276.309 37.2209L276.713 36.6936C280.58 39.6656 283.11 44.05 283.748 48.8851C284.387 53.7202 283.081 58.611 280.118 62.4846L205.571 159.704C203.847 161.945 201.63 163.758 199.092 165.003C196.554 166.248 193.763 166.891 190.936 166.883V166.883Z" fill="#E0342E"/>
</g>
<path fill-rule="evenodd" clip-rule="evenodd" d="M288.94 271.167L278.124 258.998V232.408L272.715 227H299.756C306.727 229.764 308.05 232.905 307.869 240.07H304.263C300.763 239.825 299.656 240.588 299.756 244.126V258.998L288.94 271.167ZM283.532 257.196L288.94 263.055L294.348 257.196V244.126C294.339 240.99 294.947 239.37 297.954 236.915H302.235C302.203 235.069 301.16 232.62 297.954 232.408H283.532V257.196ZM288.94 257.646L286.236 254.492V243.225H291.644V254.492L288.94 257.646Z" fill="#E0342E"/>
<path d="M305.39 244.802V252.689L309.221 248.182H361.274L364.655 243.225H307.643L305.39 244.802Z" fill="#E0342E"/>
<path d="M302.478 318.178L308.2 323.606L307.567 317.725L343.392 279.96L342.121 274.096L302.885 315.458L302.478 318.178Z" fill="#E0342E"/>
<path fill-rule="evenodd" clip-rule="evenodd" d="M353.92 284.687L342.121 284.687L337.921 289.194L337.921 300.687L353.92 284.687ZM342.121 293.025L346.853 288.293L342.121 288.518L342.121 293.025Z" fill="#E0342E"/>
<path fill-rule="evenodd" clip-rule="evenodd" d="M318.91 282.659L330.709 282.659L334.91 278.152L334.91 266.66L318.91 282.659ZM330.709 274.322L325.978 279.054L330.709 278.828L330.709 274.322Z" fill="#E0342E"/>
<path fill-rule="evenodd" clip-rule="evenodd" d="M318.91 282.659L330.709 282.659L334.91 278.152L334.91 266.66L318.91 282.659ZM330.709 274.322L325.978 279.054L330.709 278.828L330.709 274.322Z" fill="#E0342E"/>
<path d="M272.265 244.577V252.464L268.434 247.957H216.38L213 242.999H270.011L272.265 244.577Z" fill="#E0342E"/>
<path d="M317.333 285.138L310.347 292.124L298.63 279.279L315.981 259.449H346.627L342.796 264.407H318.685L305.615 279.279L310.573 285.138H317.333Z" fill="#E0342E"/>
<path d="M260.772 284.913L267.758 291.898L279.476 279.054L262.124 259.224H231.478L235.309 264.181H259.42L272.49 279.054L267.533 284.913H260.772Z" fill="#E0342E"/>
<path fill-rule="evenodd" clip-rule="evenodd" d="M278.349 303.165L279.701 304.517L280.602 305.419L282.405 307.221L283.306 308.123L285.56 310.376L286.461 311.278L289.165 313.982L291.869 311.278L292.771 310.376L295.024 308.123L295.925 307.221L297.728 305.419L298.63 304.517L299.982 303.165L289.165 290.771L278.349 303.165ZM289.165 298.658L285.56 303.165L289.165 306.771L292.545 303.165L289.165 298.658Z" fill="#E0342E"/>
<path d="M311.474 251.111H355.866L352.036 256.294H314.629L292.545 280.631V281.082L306.066 296.856L302.46 300.236L288.94 285.138L275.194 300.236L271.814 296.856L285.335 281.082V280.631L264.152 256.294H225.844L222.239 251.337H266.857L288.94 276.575L311.474 251.111Z" fill="#E0342E"/>
<path d="M276.61 318.141L270.888 323.569L271.522 317.688L235.697 279.924L236.967 274.059L276.204 315.421L276.61 318.141Z" fill="#E0342E"/>
<path fill-rule="evenodd" clip-rule="evenodd" d="M225.168 284.65L236.967 284.65L241.168 289.157L241.168 300.65L225.168 284.65ZM236.967 292.988L232.236 288.256L236.967 288.481L236.967 292.988Z" fill="#E0342E"/>
<path fill-rule="evenodd" clip-rule="evenodd" d="M260.178 282.622L248.38 282.622L244.179 278.116L244.179 266.623L260.178 282.622ZM248.379 274.285L253.111 279.017L248.38 278.792L248.379 274.285Z" fill="#E0342E"/>
<path fill-rule="evenodd" clip-rule="evenodd" d="M260.178 282.622L248.38 282.622L244.179 278.116L244.179 266.623L260.178 282.622ZM248.379 274.285L253.111 279.017L248.38 278.792L248.379 274.285Z" fill="#E0342E"/>
<defs>
<clipPath id="clip0_126_157">
<rect width="378.756" height="340" fill="white"/>
</clipPath>
</defs>
</svg>
