<?xml version="1.0" encoding="UTF-8"?><svg xmlns="http://www.w3.org/2000/svg" xmlns:xlink="http://www.w3.org/1999/xlink" contentScriptType="text/ecmascript" width="48" zoomAndPan="magnify" contentStyleType="text/css" viewBox="0 0 48 48" height="48" preserveAspectRatio="xMidYMid meet" version="1.0"><defs><clipPath id="clip-0"><path d="M 0.488281 0 L 47.507812 0 L 47.507812 47.019531 L 0.488281 47.019531 Z M 0.488281 0 " clip-rule="nonzero"/></clipPath><clipPath id="clip-1"><path d="M 19 7 L 41 7 L 41 47.019531 L 19 47.019531 Z M 19 7 " clip-rule="nonzero"/></clipPath></defs><g clip-path="url(#clip-0)"><path fill="rgb(23.919678%, 35.289001%, 59.609985%)" d="M 44.910156 47.015625 C 46.34375 47.015625 47.507812 45.855469 47.507812 44.421875 L 47.507812 2.59375 C 47.507812 1.160156 46.34375 0 44.910156 0 L 3.085938 0 C 1.652344 0 0.488281 1.160156 0.488281 2.59375 L 0.488281 44.421875 C 0.488281 45.855469 1.652344 47.015625 3.085938 47.015625 Z M 44.910156 47.015625 " fill-opacity="1" fill-rule="nonzero"/></g><g clip-path="url(#clip-1)"><path fill="rgb(100%, 100%, 100%)" d="M 32.929688 47.015625 L 32.929688 28.808594 L 39.042969 28.808594 L 39.957031 21.714844 L 32.929688 21.714844 L 32.929688 17.183594 C 32.929688 15.128906 33.5 13.730469 36.445312 13.730469 L 40.203125 13.726562 L 40.203125 7.378906 C 39.554688 7.292969 37.324219 7.101562 34.730469 7.101562 C 29.3125 7.101562 25.601562 10.40625 25.601562 16.480469 L 25.601562 21.714844 L 19.476562 21.714844 L 19.476562 28.808594 L 25.601562 28.808594 L 25.601562 47.015625 Z M 32.929688 47.015625 " fill-opacity="1" fill-rule="nonzero"/></g></svg>