<?xml version="1.0" encoding="UTF-8"?><svg xmlns="http://www.w3.org/2000/svg" xmlns:xlink="http://www.w3.org/1999/xlink" contentScriptType="text/ecmascript" width="48" zoomAndPan="magnify" contentStyleType="text/css" viewBox="0 0 48 48" height="48" preserveAspectRatio="xMidYMid meet" version="1.0"><defs><clipPath id="clip-0"><path d="M 0.488281 0 L 47.507812 0 L 47.507812 47.019531 L 0.488281 47.019531 Z M 0.488281 0 " clip-rule="nonzero"/></clipPath></defs><g clip-path="url(#clip-0)"><path fill="rgb(0%, 46.669006%, 70.979309%)" d="M 7.542969 0 L 40.457031 0 C 40.921875 0 41.378906 0.046875 41.832031 0.136719 C 42.289062 0.226562 42.726562 0.359375 43.15625 0.535156 C 43.585938 0.714844 43.992188 0.929688 44.375 1.1875 C 44.761719 1.445312 45.117188 1.738281 45.445312 2.066406 C 45.773438 2.394531 46.0625 2.75 46.320312 3.132812 C 46.578125 3.519531 46.796875 3.925781 46.972656 4.355469 C 47.152344 4.78125 47.285156 5.222656 47.375 5.675781 C 47.464844 6.132812 47.511719 6.589844 47.511719 7.054688 L 47.511719 39.96875 C 47.511719 40.429688 47.464844 40.890625 47.375 41.34375 C 47.285156 41.796875 47.152344 42.238281 46.972656 42.667969 C 46.796875 43.09375 46.578125 43.5 46.320312 43.886719 C 46.0625 44.269531 45.773438 44.628906 45.445312 44.953125 C 45.117188 45.28125 44.761719 45.574219 44.375 45.832031 C 43.992188 46.089844 43.585938 46.304688 43.15625 46.484375 C 42.726562 46.660156 42.289062 46.792969 41.832031 46.886719 C 41.378906 46.976562 40.921875 47.019531 40.457031 47.019531 L 7.542969 47.019531 C 7.078125 47.019531 6.621094 46.976562 6.167969 46.886719 C 5.710938 46.792969 5.273438 46.660156 4.84375 46.484375 C 4.414062 46.304688 4.007812 46.089844 3.625 45.832031 C 3.238281 45.574219 2.882812 45.28125 2.554688 44.953125 C 2.226562 44.628906 1.9375 44.269531 1.679688 43.886719 C 1.421875 43.5 1.203125 43.09375 1.027344 42.667969 C 0.847656 42.238281 0.714844 41.796875 0.625 41.34375 C 0.535156 40.890625 0.488281 40.429688 0.488281 39.96875 L 0.488281 7.054688 C 0.488281 6.589844 0.535156 6.132812 0.625 5.675781 C 0.714844 5.222656 0.847656 4.78125 1.027344 4.355469 C 1.203125 3.925781 1.421875 3.519531 1.679688 3.132812 C 1.9375 2.75 2.226562 2.394531 2.554688 2.066406 C 2.882812 1.738281 3.238281 1.445312 3.625 1.1875 C 4.007812 0.929688 4.414062 0.714844 4.84375 0.535156 C 5.273438 0.359375 5.710938 0.226562 6.167969 0.136719 C 6.621094 0.046875 7.078125 0 7.542969 0 Z M 7.542969 0 " fill-opacity="1" fill-rule="nonzero"/></g><path fill="rgb(100%, 100%, 100%)" d="M 16.929688 12.671875 C 16.929688 13.125 16.84375 13.558594 16.667969 13.972656 C 16.496094 14.390625 16.25 14.757812 15.933594 15.078125 C 15.613281 15.394531 15.246094 15.640625 14.832031 15.8125 C 14.414062 15.984375 13.980469 16.070312 13.53125 16.070312 C 13.078125 16.070312 12.648438 15.984375 12.230469 15.8125 C 11.8125 15.640625 11.445312 15.394531 11.128906 15.078125 C 10.808594 14.757812 10.5625 14.390625 10.390625 13.972656 C 10.21875 13.558594 10.132812 13.125 10.132812 12.671875 C 10.132812 12.222656 10.21875 11.789062 10.390625 11.375 C 10.5625 10.957031 10.808594 10.589844 11.128906 10.269531 C 11.445312 9.953125 11.8125 9.707031 12.230469 9.535156 C 12.648438 9.363281 13.078125 9.277344 13.53125 9.277344 C 13.980469 9.277344 14.414062 9.363281 14.832031 9.535156 C 15.246094 9.707031 15.613281 9.953125 15.933594 10.269531 C 16.25 10.589844 16.496094 10.957031 16.667969 11.375 C 16.84375 11.789062 16.929688 12.222656 16.929688 12.671875 Z M 16.929688 12.671875 " fill-opacity="1" fill-rule="nonzero"/><path stroke-linecap="butt" transform="matrix(0.0918367, 0, 0, 0.0918367, 0.489796, 0.00000554656)" fill-opacity="1" fill="rgb(100%, 100%, 100%)" fill-rule="nonzero" stroke-linejoin="miter" d="M 244.005219 194.000814 L 244.005219 391.999953 M 142.006951 194.000814 L 142.006951 391.999953 " stroke="rgb(100%, 100%, 100%)" stroke-width="66" stroke-opacity="1" stroke-miterlimit="4"/><path fill="rgb(100%, 100%, 100%)" d="M 25.835938 25.898438 C 25.835938 24.0625 27.03125 22.222656 29.144531 22.222656 C 31.347656 22.222656 32.171875 23.878906 32.171875 26.355469 L 32.171875 36 L 38.234375 36 L 38.234375 25.621094 C 38.234375 20.019531 35.296875 17.449219 31.253906 17.449219 C 28.132812 17.449219 26.570312 19.195312 25.835938 20.386719 " fill-opacity="1" fill-rule="nonzero"/></svg>